<svg xmlns="http://www.w3.org/2000/svg" height="24" width="24" preserveAspectRatio="xMidYMid meet">
  <path
    d="M4.775 17.625q-.6 0-1.012-.413Q3.35 16.8 3.35 16.2V7.725q0-.6.413-1.012.412-.413 1.012-.413H19.25q.6 0 1.013.413.412.412.412 1.012V16.2q0 .6-.412 1.012-.413.413-1.013.413Zm0-.625H19.25q.3 0 .55-.25.25-.25.25-.55V7.725q0-.3-.25-.55-.25-.25-.55-.25H4.775q-.3 0-.55.25-.25.25-.25.55V16.2q0 .3.25.55.25.25.55.25Zm3.55-1.375H15.7V14.3H8.325Zm-2.975-3h1.325V11.3H5.35Zm3 0h1.325V11.3H8.35Zm3 0h1.325V11.3H11.35Zm3 0h1.325V11.3H14.35Zm3 0h1.325V11.3H17.35Zm-12-3h1.325V8.3H5.35Zm3 0h1.325V8.3H8.35Zm3 0h1.325V8.3H11.35Zm3 0h1.325V8.3H14.35Zm3 0h1.325V8.3H17.35ZM3.975 17V6.925 17Z"
  />
</svg>
